<svg width="18" height="18" xmlns="http://www.w3.org/2000/svg">

 <g>
  <title>background</title>
  <rect fill="none" id="canvas_background" height="20" width="20" y="-1" x="-1"/>
 </g>
 <g>
  <title>Layer 1</title>
  <g stroke="null" id="surface1">
   <path stroke="null" id="svg_1" fill-rule="nonzero" fill="rgb(89.803922%,8.235294%,10.588235%)" d="m13.986033,12.059756c-0.014122,0 -0.018837,0 -0.032971,-0.009431c-0.028268,-0.009419 -0.051821,-0.04239 -0.051821,-0.080077l0.009419,-6.769478c0,-0.089508 0,-0.155462 0.084804,-0.155462c0.028256,0 0.047105,0.009419 0.065943,0.028268l3.410656,3.410644c0.037687,0.037687 0.037687,0.084792 0,0.122479l-3.420074,3.420074c-0.018837,0.023553 -0.04239,0.032983 -0.065955,0.032983zm0,0"/>
   <path stroke="null" id="svg_2" fill-rule="nonzero" fill="rgb(89.803922%,8.235294%,10.588235%)" d="m13.995464,5.130099l3.415359,3.420074l-3.42479,3.424778l0.009431,-6.844852m0,-0.169584c-0.056536,0 -0.11306,0.032971 -0.146044,0.084792c-0.023553,0.042402 -0.023553,0.047105 -0.023553,0.164881l0,3.339985l-0.004703,3.424778c0,0.094223 0.075373,0.169596 0.169584,0.169596c0.042402,0 0.089508,-0.018849 0.117776,-0.051821l3.424778,-3.424778c0.065955,-0.065955 0.065955,-0.174312 0,-0.24497l-3.410644,-3.40594c-0.028268,-0.032971 -0.07067,-0.056524 -0.127194,-0.056524zm0,0"/>
   <path stroke="null" id="svg_3" fill-rule="nonzero" fill="rgb(89.803922%,8.235294%,10.588235%)" d="m3.961361,12.059756c-0.028256,0 -0.051809,-0.014134 -0.065943,-0.032983l-3.410656,-3.40594c-0.018837,-0.014134 -0.028268,-0.037687 -0.028268,-0.056524c0,-0.023553 0.009431,-0.042402 0.028268,-0.061239l3.420074,-3.429493c0.018837,-0.014134 0.042402,-0.023553 0.061239,-0.023553c0.014134,0 0.023553,0 0.037687,0.009419c0.028268,0.014134 0.047105,0.04239 0.047105,0.080077l-0.014134,6.764775c0.009431,0.089508 0.009431,0.155462 -0.075373,0.155462zm0,0"/>
   <path stroke="null" id="svg_4" fill-rule="nonzero" fill="rgb(89.803922%,8.235294%,10.588235%)" d="m3.970792,5.130099l-0.009431,6.844852l-3.420062,-3.410644l3.429493,-3.434208m0,-0.169584c-0.042402,0 -0.089508,0.018837 -0.117776,0.051821l-3.424778,3.424778c-0.032983,0.032971 -0.051821,0.080089 -0.051821,0.122479c0,0.047105 0.018837,0.089508 0.051821,0.117776l3.40594,3.40594c0.028256,0.032971 0.075373,0.056524 0.127182,0.056524c0.009431,0 0.169596,-0.004703 0.169596,-0.188434l0,-1.050513l0.004715,-2.350712l0.004703,-3.420074c0,-0.070658 -0.04239,-0.136613 -0.108345,-0.160166c-0.018849,-0.004715 -0.042402,-0.009419 -0.061239,-0.009419zm0,0"/>
   <path stroke="null" id="svg_5" fill-rule="nonzero" fill="rgb(89.803922%,8.235294%,10.588235%)" d="m7.503915,6.939063c-0.047105,0 -0.084792,-0.032971 -0.084792,-0.084792l0,-3.000805l-2.07277,0c-0.032971,0 -0.065955,-0.023553 -0.080077,-0.051821c-0.009431,-0.028268 -0.004715,-0.070658 0.018837,-0.094223l3.594374,-3.594362c0.018837,-0.018849 0.042402,-0.028268 0.061239,-0.028268c0.023553,0 0.042402,0.009419 0.061239,0.028268l3.533135,3.533122c0.023553,0.028268 0.032971,0.061239 0.018837,0.094223c-0.014122,0.032971 -0.04239,0.051821 -0.075373,0.051821l-1.84665,0l0,3.062044c0,0.051821 -0.037687,0.084792 -0.084792,0.084792l-3.043207,0zm0,0"/>
   <path stroke="null" id="svg_6" fill-rule="nonzero" fill="rgb(89.803922%,8.235294%,10.588235%)" d="m8.945441,0.169584l3.537838,3.537838l-1.936158,0l0,3.146848l-3.043207,0l0,-3.085597l-2.157563,0l3.599089,-3.599089m0,-0.169584c-0.042402,0 -0.084804,0.018837 -0.122491,0.051809l-3.589659,3.594374c-0.051821,0.047117 -0.065955,0.127194 -0.04239,0.188434c0.028256,0.065955 0.089495,0.108357 0.15545,0.108357l1.992694,0l0,2.916013c0,0.094211 0.075373,0.169584 0.169584,0.169584l3.038492,0c0.094223,0 0.169596,-0.075373 0.169596,-0.169584l0,-2.977252l1.761846,0c0.065955,0 0.13191,-0.042402 0.155462,-0.108357c0.023553,-0.061239 0.009419,-0.136613 -0.037687,-0.183718l-3.533135,-3.53785c-0.032971,-0.032971 -0.075373,-0.051809 -0.117764,-0.051809zm0,0"/>
   <path stroke="null" id="svg_7" fill-rule="nonzero" fill="rgb(89.803922%,8.235294%,10.588235%)" d="m9.034949,16.987287c-0.023565,0 -0.042402,-0.009419 -0.061251,-0.028256l-3.537838,-3.533135c-0.023553,-0.028268 -0.028268,-0.061239 -0.014134,-0.094223c0.009419,-0.032971 0.042402,-0.051821 0.075373,-0.051821l1.841947,0l0,-3.062044c0,-0.051821 0.04239,-0.084792 0.084792,-0.084792l3.04791,0c0.047105,0 0.084792,0.032971 0.084792,0.084792l0,3.000805l2.07277,0c0.032983,0 0.065955,0.023553 0.075373,0.051821c0.014134,0.028268 0.004715,0.07067 -0.018837,0.094223l-3.594374,3.594374c-0.014134,0.014122 -0.037687,0.028256 -0.056524,0.028256zm0,0"/>
   <path stroke="null" id="svg_8" fill-rule="nonzero" fill="rgb(89.803922%,8.235294%,10.588235%)" d="m10.471748,10.217809l0,3.090312l2.157563,0l-3.594362,3.594374l-3.53785,-3.537838l1.926739,0l0,-3.146848l3.04791,0m0,-0.169584l-3.04791,0c-0.089508,0 -0.169596,0.070658 -0.169596,0.169584l0,2.977252l-1.757143,0c-0.065955,0 -0.131898,0.042402 -0.15545,0.103642c-0.023565,0.065955 -0.014134,0.141328 0.037687,0.188434l3.533122,3.537838c0.037687,0.032983 0.080089,0.047117 0.122491,0.047117c0.04239,0 0.084792,-0.014134 0.117764,-0.047117l3.594374,-3.599077c0.047105,-0.042402 0.061239,-0.117776 0.037687,-0.18373c-0.023553,-0.061239 -0.089508,-0.108345 -0.155462,-0.108345l-1.987966,0l0,-2.916013c0,-0.098926 -0.080089,-0.169584 -0.169596,-0.169584zm0,0"/>
  </g>
 </g>
</svg>